<?xml version="1.0" standalone="no"?>
<!DOCTYPE svg PUBLIC "-//W3C//DTD SVG 20010904//EN"
 "http://www.w3.org/TR/2001/REC-SVG-20010904/DTD/svg10.dtd">
<svg version="1.0" xmlns="http://www.w3.org/2000/svg"
 width="1102.000000pt" height="1102.000000pt" viewBox="0 0 1102.000000 1102.000000"
 preserveAspectRatio="xMidYMid meet">
<metadata>
Created by potrace 1.11, written by Peter Selinger 2001-2013
</metadata>
<g transform="translate(0.000000,1102.000000) scale(0.100000,-0.100000)"
fill="#000000" stroke="none">
<path d="M3460 10656 l0 -64 56 -48 c45 -41 66 -70 115 -169 l61 -120 -264 -6
c-263 -5 -263 -5 -593 -62 -181 -31 -331 -57 -332 -57 -2 0 -3 -28 -3 -63 l0
-62 123 -123 123 -123 234 -58 235 -57 66 -62 66 -61 239 -60 239 -61 58 -60
59 -60 119 0 119 0 0 -120 0 -119 117 -57 c166 -81 215 -130 299 -297 l65
-128 114 3 115 3 0 -113 0 -112 180 -361 181 -360 64 -257 c45 -179 81 -361
121 -602 l56 -345 59 -117 59 -118 0 -242 0 -242 123 -123 c112 -112 128 -133
172 -223 27 -55 46 -102 43 -105 -3 -4 -52 17 -108 45 -94 47 -106 51 -163 48
l-62 -3 -3 -295 -2 -294 56 -171 c31 -93 85 -228 119 -300 51 -105 75 -142
124 -192 47 -48 76 -91 121 -180 l59 -118 303 -303 303 -304 240 -120 c184
-93 281 -134 415 -179 l174 -59 730 0 729 0 171 56 c144 48 228 85 531 236
l360 180 363 361 363 362 60 117 c53 107 59 124 59 181 0 57 4 70 47 141 25
43 50 97 54 119 5 23 8 342 9 709 0 524 -3 667 -12 671 -7 2 -25 -2 -40 -9
-14 -8 -59 -16 -100 -20 -97 -8 -133 -20 -158 -52 -12 -15 -107 -114 -212
-219 l-192 -192 -120 -62 c-93 -47 -135 -76 -181 -121 -55 -56 -86 -73 -415
-237 -455 -228 -580 -272 -1025 -361 l-300 -60 -289 0 -290 0 -485 121 c-471
117 -489 123 -603 180 l-118 59 -180 0 -180 0 0 60 c0 53 -4 64 -27 89 -16 15
-39 39 -52 54 l-24 26 948 1 948 0 236 117 236 116 363 361 364 361 63 125
c60 119 69 130 182 242 119 117 120 118 131 180 6 35 32 194 57 353 l47 290
64 132 64 132 0 350 0 350 -64 133 -64 133 -57 350 -57 350 -121 243 -121 242
-123 0 c-121 0 -123 0 -123 -22 0 -13 0 -146 0 -295 0 -150 -2 -273 -5 -273
-3 0 -55 25 -115 55 l-110 55 -120 0 -120 0 0 236 0 235 -122 245 -122 245
-122 60 c-108 52 -129 59 -183 59 l-61 0 0 -1137 0 -1138 -59 -179 c-59 -179
-60 -179 -120 -240 -48 -49 -73 -88 -129 -201 -38 -77 -76 -156 -85 -175 -9
-19 -32 -70 -51 -113 -20 -42 -36 -79 -36 -82 0 -2 -25 -48 -56 -102 -54 -92
-78 -119 -420 -463 l-364 -365 0 -118 0 -117 -225 0 c-124 0 -225 3 -225 7 0
3 50 56 111 116 l110 109 240 479 239 479 0 721 0 721 -60 239 c-53 212 -67
254 -119 358 -56 110 -67 125 -179 238 -113 113 -124 127 -180 240 l-61 120
-243 241 -243 242 -237 0 -238 0 0 120 0 120 -240 0 -240 0 0 60 0 60 -110 55
-110 55 -550 0 -550 0 0 -64z"/>
<path d="M1806 8092 c-20 -3 -49 -23 -90 -63 -59 -58 -61 -59 -233 -115 -172
-57 -174 -58 -239 -119 -65 -62 -66 -63 -242 -121 l-177 -59 -238 -235 -238
-235 -64 -127 c-57 -110 -65 -134 -65 -182 l0 -55 -57 -3 -58 -3 -52 -100
c-51 -98 -53 -102 -53 -185 l0 -85 223 -54 c122 -29 225 -57 229 -60 4 -4 -46
-168 -112 -366 -98 -293 -120 -370 -120 -417 l0 -58 185 0 185 0 0 120 0 120
117 0 117 0 61 60 c60 59 61 60 240 120 l180 61 65 63 c105 102 236 160 535
236 132 33 375 87 539 120 l300 60 239 0 239 0 461 -117 462 -118 255 -5 255
-5 -2 -51 c-3 -51 -2 -52 62 -119 l65 -67 0 -114 c0 -63 -2 -114 -5 -114 -3 0
-59 27 -125 60 l-120 60 -470 0 -471 0 -242 -61 -242 -62 -240 -119 -240 -120
-418 -416 -419 -417 -125 -250 c-99 -198 -138 -287 -184 -427 l-59 -176 0
-709 0 -708 61 -245 61 -245 182 -360 181 -360 57 -3 c47 -2 57 0 61 15 3 10
4 253 3 541 l-1 522 118 0 117 0 0 -235 0 -235 184 -368 184 -367 117 -115
c109 -108 120 -122 176 -232 l59 -118 60 0 60 0 0 1193 0 1193 64 190 c55 161
91 241 241 539 163 325 180 355 239 415 50 51 76 90 120 180 53 107 65 123
174 233 111 112 123 122 237 179 113 56 128 68 250 187 122 118 137 130 242
181 l112 54 3 60 3 61 60 1 c52 0 75 8 175 58 87 44 130 73 178 119 l62 61 0
63 0 63 -52 0 -53 0 113 55 112 56 0 244 0 244 -58 55 -57 55 -60 178 -59 178
-65 70 -66 71 -54 169 c-34 108 -77 215 -117 295 -60 120 -67 130 -186 247
-116 114 -130 125 -243 181 -93 47 -132 73 -175 117 -49 50 -83 71 -292 176
l-237 119 -938 2 c-516 2 -951 1 -967 0z"/>
<path d="M5195 5160 c-47 -48 -83 -71 -178 -117 l-118 -58 -180 -360 c-167
-333 -185 -365 -244 -425 l-63 -65 -117 -353 -118 -354 1 -311 0 -312 120
-355 c112 -333 128 -371 240 -595 106 -212 127 -246 177 -295 44 -43 70 -82
117 -175 83 -166 133 -216 298 -300 97 -49 137 -76 180 -120 43 -44 83 -71
180 -120 97 -50 138 -77 185 -124 l60 -60 177 -1 177 0 3 -117 3 -117 45 -8
c25 -5 217 -33 428 -63 286 -41 412 -55 498 -55 l114 0 0 64 0 64 -122 121
-122 121 -53 0 c-29 0 -53 4 -53 8 0 13 100 211 109 216 8 5 140 27 336 56
108 16 493 70 499 70 3 0 6 29 6 64 l0 65 -120 60 c-68 34 -198 86 -302 120
l-183 61 -180 180 -180 180 -177 0 -178 0 0 118 0 117 -239 240 -240 239 -60
123 c-53 107 -68 152 -120 359 l-59 236 -121 123 c-67 67 -121 125 -121 128 0
9 -47 347 -60 427 -13 82 -37 258 -45 330 -5 37 -26 95 -66 177 -32 67 -59
127 -59 133 0 6 25 59 55 119 l54 109 1 209 c0 114 1 225 0 246 l0 37 -63 0
-63 0 -59 -60z"/>
</g>
</svg>
